<svg xmlns="http://www.w3.org/2000/svg" width="350.488" height="350.487" fill="#bdbdbd" style="enable-background:new 0 0 350.488 350.487" xml:space="preserve"><path d="m83.386 128.082 17.572 17.615 61.847-61.843v218.217h24.869V83.86l61.831 61.831 17.6-17.603-91.867-91.852z"/><path d="M175.238.006C78.615.006 0 78.615 0 175.244s78.615 175.237 175.238 175.237c96.635 0 175.25-78.608 175.25-175.237 0-96.629-78.614-175.238-175.25-175.238zm0 326.757c-83.551 0-151.522-67.968-151.522-151.519S91.688 23.722 175.238 23.722c83.556 0 151.531 67.972 151.531 151.522s-67.975 151.519-151.531 151.519z"/></svg>