<svg xmlns="http://www.w3.org/2000/svg" viewBox="0 0 1000 1000" xml:space="preserve"><path d="M4556.2 5009.7c-634.3-65.4-1166.8-215.3-1720.4-486.3C1534.5 3885.2 575.3 2695.3 233.1 1292 142.8 921 113.9 684.6 102.4 246.3 87-336.1 144.7-782.1 302.3-1301.1 817.5-3009.9 2251.5-4322.8 3993-4682.3c626.6-128.8 1385.9-130.7 1999.1-1.9 1916.5 399.8 3412 1895.3 3811.8 3811.8 96.1 459.4 123 1082.2 67.3 1557C9606 2954.8 7831.8 4729 5561.6 4994.3c-221.1 25-817 34.6-1005.4 15.4zm2912.3-3212.1v-274.9L6228.6 869.1c-682.4-357.5-1247.5-651.6-1259.1-651.6-9.6 0-563.2 294.1-1230.2 651.6l-1211 651.7-5.8 255.7c-1.9 140.3 0 267.2 3.8 280.7 7.7 21.1 463.3 25 2475.9 21.1l2466.2-5.8v-274.9zm-3725.4-1459C4406.3-17 4958-307.3 4969.5-307.3S5534.6-20.9 6201.7 329c665.1 349.9 1224.5 642 1243.7 647.8 30.8 13.5 32.7-53.8 32.7-1232.2 0-851.5-7.7-1272.5-21.1-1324.4-30.8-107.7-144.2-211.4-261.4-236.4-128.8-26.9-4248.2-28.8-4384.6-1.9-126.9 25-240.3 124.9-271 238.3-21.1 78.8-32.7 2566.2-11.5 2566.2 5.5 0 553.4-290.3 1214.6-647.8z" style="fill:#81bffd" transform="matrix(.1 0 0 -.1 0 512)"/></svg>