<svg xmlns="http://www.w3.org/2000/svg" version="1.1" xmlns:xlink="http://www.w3.org/1999/xlink" xmlns:svgjs="http://svgjs.com/svgjs" width="192.000000pt" height="192.000000pt"><svg version="1.0" xmlns="http://www.w3.org/2000/svg" width="192.000000pt" height="192.000000pt" viewBox="0 0 192.000000 192.000000" preserveAspectRatio="xMidYMid meet">

<g transform="translate(0.000000,192.000000) scale(0.100000,-0.100000)" fill="#eb341a" stroke="none">
<path d="M749 1369 l-52 -61 61 -61 62 -62 62 62 63 63 -60 60 c-33 33 -65 60
-71 60 -7 0 -36 -27 -65 -61z"></path>
<path d="M1045 1370 l-60 -60 63 -63 62 -62 62 62 63 63 -60 60 c-33 33 -62
60 -65 60 -3 0 -32 -27 -65 -60z"></path>
<path d="M612 1217 l-52 -53 55 -54 55 -54 55 54 55 54 -52 53 c-29 29 -55 53
-58 53 -3 0 -29 -24 -58 -53z"></path>
<path d="M907 1222 c-26 -26 -47 -52 -47 -58 0 -5 23 -32 50 -59 l50 -50 57
58 58 57 -50 50 c-27 27 -54 50 -60 50 -6 0 -32 -22 -58 -48z"></path>
<path d="M1195 1220 l-50 -50 58 -57 57 -58 50 50 c27 27 50 54 50 60 0 13
-92 105 -106 105 -5 0 -32 -23 -59 -50z"></path>
<path d="M471 1064 l-41 -46 47 -43 c27 -24 50 -44 53 -45 3 0 26 20 50 45
l44 45 -44 45 c-24 25 -49 45 -56 45 -6 0 -30 -21 -53 -46z"></path>
<path d="M770 1065 l-44 -45 47 -48 47 -47 47 47 47 48 -44 45 c-24 25 -47 45
-50 45 -3 0 -26 -20 -50 -45z"></path>
<path d="M1060 1065 l-44 -45 47 -48 47 -47 47 47 47 48 -44 45 c-24 25 -47
45 -50 45 -3 0 -26 -20 -50 -45z"></path>
<path d="M1350 1065 l-44 -45 47 -48 47 -47 47 47 47 48 -44 45 c-24 25 -47
45 -50 45 -3 0 -26 -20 -50 -45z"></path>
<path d="M337 912 l-37 -38 40 -39 40 -39 40 39 40 39 -37 38 c-20 21 -40 38
-43 38 -3 0 -23 -17 -43 -38z"></path>
<path d="M627 912 l-37 -38 40 -39 40 -39 40 39 40 39 -37 38 c-20 21 -40 38
-43 38 -3 0 -23 -17 -43 -38z"></path>
<path d="M922 917 c-18 -18 -32 -37 -32 -43 0 -13 63 -74 76 -74 6 0 25 16 44
35 l34 35 -39 40 c-21 22 -42 40 -45 40 -3 0 -20 -15 -38 -33z"></path>
<path d="M1215 910 l-39 -40 34 -35 c19 -19 39 -35 45 -35 6 0 28 17 48 38
l37 38 -38 37 c-21 20 -40 37 -43 37 -3 0 -23 -18 -44 -40z"></path>
<path d="M1507 912 l-37 -38 40 -39 40 -39 40 39 40 39 -37 38 c-20 21 -40 38
-43 38 -3 0 -23 -17 -43 -38z"></path>
<path d="M197 758 l-28 -31 32 -33 33 -34 33 32 33 32 -32 33 c-18 18 -34 32
-37 32 -4 -1 -19 -15 -34 -31z"></path>
<path d="M492 757 l-32 -33 33 -32 33 -32 33 34 32 33 -26 32 c-15 17 -30 31
-34 31 -4 0 -21 -15 -39 -33z"></path>
<path d="M782 757 l-32 -33 33 -32 33 -32 34 35 34 35 -29 30 c-16 16 -32 30
-35 30 -3 0 -20 -15 -38 -33z"></path>
<path d="M1075 760 l-29 -30 32 -33 32 -32 32 32 32 33 -29 30 c-16 16 -32 30
-35 30 -3 0 -19 -14 -35 -30z"></path>
<path d="M1365 760 l-29 -30 34 -35 34 -35 33 32 33 32 -32 33 c-18 18 -35 33
-38 33 -3 0 -19 -14 -35 -30z"></path>
<path d="M1662 757 l-32 -33 33 -32 33 -32 32 33 32 33 -33 32 -33 32 -32 -33z"></path>
<path d="M60 605 l-23 -25 23 -25 24 -25 28 27 28 27 -22 23 c-27 29 -29 29
-58 -2z"></path>
<path d="M350 605 l-24 -26 27 -27 27 -27 27 27 27 27 -24 26 c-13 14 -26 25
-30 25 -4 0 -17 -11 -30 -25z"></path>
<path d="M642 607 l-22 -23 28 -27 28 -27 24 25 23 25 -23 25 c-29 31 -31 31
-58 2z"></path>
<path d="M937 612 c-22 -25 -21 -34 6 -60 l23 -22 24 25 23 25 -23 25 c-28 30
-32 30 -53 7z"></path>
<path d="M1230 605 l-23 -25 23 -25 24 -25 28 27 28 27 -22 23 c-27 29 -29 29
-58 -2z"></path>
<path d="M1522 607 c-28 -29 -27 -31 4 -52 25 -16 27 -16 50 6 l24 23 -22 23
c-27 28 -29 28 -56 0z"></path>
<path d="M1812 607 l-22 -23 28 -27 28 -27 24 25 23 25 -23 25 c-29 31 -31 31
-58 2z"></path>
</g>
</svg><style>@media (prefers-color-scheme: light) { :root { filter: none; } }
</style></svg>