<svg xmlns="http://www.w3.org/2000/svg" width="256" height="256"><svg version="1.0" xmlns="http://www.w3.org/2000/svg" width="256" height="256" viewBox="0 0 192 192"><g fill="#eb341a"><path d="m74.9 55.1-5.2 6.1 6.1 6.1 6.2 6.2 6.2-6.2 6.3-6.3-6-6c-3.3-3.3-6.5-6-7.1-6-.7 0-3.6 2.7-6.5 6.1zM104.5 55l-6 6 6.3 6.3 6.2 6.2 6.2-6.2 6.3-6.3-6-6c-3.3-3.3-6.2-6-6.5-6-.3 0-3.2 2.7-6.5 6zM61.2 70.3 56 75.6l5.5 5.4 5.5 5.4 5.5-5.4 5.5-5.4-5.2-5.3C69.9 67.4 67.3 65 67 65c-.3 0-2.9 2.4-5.8 5.3zM90.7 69.8C88.1 72.4 86 75 86 75.6c0 .5 2.3 3.2 5 5.9l5 5 5.7-5.8 5.8-5.7-5-5c-2.7-2.7-5.4-5-6-5-.6 0-3.2 2.2-5.8 4.8zM119.5 70l-5 5 5.8 5.7 5.7 5.8 5-5c2.7-2.7 5-5.4 5-6 0-1.3-9.2-10.5-10.6-10.5-.5 0-3.2 2.3-5.9 5zM47.1 85.6 43 90.2l4.7 4.3c2.7 2.4 5 4.4 5.3 4.5.3 0 2.6-2 5-4.5l4.4-4.5-4.4-4.5C55.6 83 53.1 81 52.4 81c-.6 0-3 2.1-5.3 4.6zM77 85.5 72.6 90l4.7 4.8 4.7 4.7 4.7-4.7 4.7-4.8-4.4-4.5C84.6 83 82.3 81 82 81c-.3 0-2.6 2-5 4.5zM106 85.5l-4.4 4.5 4.7 4.8 4.7 4.7 4.7-4.7 4.7-4.8-4.4-4.5c-2.4-2.5-4.7-4.5-5-4.5-.3 0-2.6 2-5 4.5zM135 85.5l-4.4 4.5 4.7 4.8 4.7 4.7 4.7-4.7 4.7-4.8-4.4-4.5c-2.4-2.5-4.7-4.5-5-4.5-.3 0-2.6 2-5 4.5zM33.7 100.8l-3.7 3.8 4 3.9 4 3.9 4-3.9 4-3.9-3.7-3.8c-2-2.1-4-3.8-4.3-3.8-.3 0-2.3 1.7-4.3 3.8zM62.7 100.8l-3.7 3.8 4 3.9 4 3.9 4-3.9 4-3.9-3.7-3.8c-2-2.1-4-3.8-4.3-3.8-.3 0-2.3 1.7-4.3 3.8zM92.2 100.3c-1.8 1.8-3.2 3.7-3.2 4.3 0 1.3 6.3 7.4 7.6 7.4.6 0 2.5-1.6 4.4-3.5l3.4-3.5-3.9-4c-2.1-2.2-4.2-4-4.5-4-.3 0-2 1.5-3.8 3.3zM121.5 101l-3.9 4 3.4 3.5c1.9 1.9 3.9 3.5 4.5 3.5.6 0 2.8-1.7 4.8-3.8l3.7-3.8-3.8-3.7c-2.1-2-4-3.7-4.3-3.7-.3 0-2.3 1.8-4.4 4zM150.7 100.8l-3.7 3.8 4 3.9 4 3.9 4-3.9 4-3.9-3.7-3.8c-2-2.1-4-3.8-4.3-3.8-.3 0-2.3 1.7-4.3 3.8zM19.7 116.2l-2.8 3.1 3.2 3.3 3.3 3.4 3.3-3.2 3.3-3.2-3.2-3.3c-1.8-1.8-3.4-3.2-3.7-3.2-.4.1-1.9 1.5-3.4 3.1zM49.2 116.3l-3.2 3.3 3.3 3.2 3.3 3.2 3.3-3.4 3.2-3.3-2.6-3.2c-1.5-1.7-3-3.1-3.4-3.1-.4 0-2.1 1.5-3.9 3.3zM78.2 116.3l-3.2 3.3 3.3 3.2 3.3 3.2 3.4-3.5 3.4-3.5-2.9-3c-1.6-1.6-3.2-3-3.5-3-.3 0-2 1.5-3.8 3.3zM107.5 116l-2.9 3 3.2 3.3 3.2 3.2 3.2-3.2 3.2-3.3-2.9-3c-1.6-1.6-3.2-3-3.5-3-.3 0-1.9 1.4-3.5 3zM136.5 116l-2.9 3 3.4 3.5 3.4 3.5 3.3-3.2 3.3-3.2-3.2-3.3c-1.8-1.8-3.5-3.3-3.8-3.3-.3 0-1.9 1.4-3.5 3zM166.2 116.3l-3.2 3.3 3.3 3.2 3.3 3.2 3.2-3.3 3.2-3.3-3.3-3.2-3.3-3.2-3.2 3.3zM6 131.5 3.7 134l2.3 2.5 2.4 2.5 2.8-2.7 2.8-2.7-2.2-2.3c-2.7-2.9-2.9-2.9-5.8.2zM35 131.5l-2.4 2.6 2.7 2.7 2.7 2.7 2.7-2.7 2.7-2.7-2.4-2.6c-1.3-1.4-2.6-2.5-3-2.5-.4 0-1.7 1.1-3 2.5zM64.2 131.3l-2.2 2.3 2.8 2.7 2.8 2.7 2.4-2.5 2.3-2.5-2.3-2.5c-2.9-3.1-3.1-3.1-5.8-.2zM93.7 130.8c-2.2 2.5-2.1 3.4.6 6l2.3 2.2 2.4-2.5 2.3-2.5-2.3-2.5c-2.8-3-3.2-3-5.3-.7zM123 131.5l-2.3 2.5 2.3 2.5 2.4 2.5 2.8-2.7 2.8-2.7-2.2-2.3c-2.7-2.9-2.9-2.9-5.8.2zM152.2 131.3c-2.8 2.9-2.7 3.1.4 5.2 2.5 1.6 2.7 1.6 5-.6l2.4-2.3-2.2-2.3c-2.7-2.8-2.9-2.8-5.6 0zM181.2 131.3l-2.2 2.3 2.8 2.7 2.8 2.7 2.4-2.5 2.3-2.5-2.3-2.5c-2.9-3.1-3.1-3.1-5.8-.2z"/></g></svg><style>@media (prefers-color-scheme:light){:root{filter:none}}</style></svg>