<svg version="1.0" xmlns="http://www.w3.org/2000/svg" width="256" height="256" viewBox="0 0 192 192"><path d="M74.2 55.3c-4.1 4.2-6.1 6.8-5.6 7.8.4.8 3.3 3.9 6.6 6.8l5.9 5.5 6.6-6.6 6.6-6.6-6.5-6.6C84.2 52 81.1 49 80.9 49c-.3 0-3.3 2.8-6.7 6.3zM104 55.5 97.5 62l6.8 6.8 6.7 6.7 6.7-6.7 6.8-6.8-6.5-6.5c-3.5-3.6-6.7-6.5-7-6.5-.3 0-3.5 2.9-7 6.5zM89.7 71.4l-5.8 6 5.5 5.3c3 2.9 5.9 5.3 6.4 5.3 1.5 0 11.2-10 11.1-11.3-.1-.7-2.7-3.5-5.8-6.2l-5.6-5.1-5.8 6zM59.7 71.5 54 77l5.3 5.5c2.9 3 5.8 5.5 6.4 5.5.5 0 3.5-2.5 6.5-5.5l5.6-5.6-5.7-5.4c-3.2-3-6-5.5-6.2-5.5-.3 0-3 2.5-6.2 5.5zM120.2 71.1c-2.8 2.7-5.2 5.5-5.2 6.1 0 .6 2.5 3.5 5.6 6.4l5.6 5.4 5.8-6 5.7-6-5.5-5.5c-3.1-3-5.8-5.5-6.1-5.5-.4 0-3 2.3-5.9 5.1zM45.6 86.9l-4.9 4.9 2.4 2.9c1.3 1.6 3.6 3.9 5.2 5.2l2.9 2.4 5-5 5-5.1-4.9-5.1c-2.7-2.8-5.1-5.1-5.4-5.1-.3 0-2.7 2.2-5.3 4.9zM75.5 87l-5 5 5.3 5.3 5.2 5.2 5.1-5.2 5.2-5.1-4.9-5.1C83.7 84.3 81.3 82 81 82c-.3 0-2.8 2.3-5.5 5zM105.5 87l-5 5 5.3 5.3 5.2 5.2 5.2-5.3 5.3-5.2-5-5c-2.8-2.7-5.2-5-5.5-5-.3 0-2.8 2.3-5.5 5zM135.5 87.1l-4.9 5 5.2 5.2 5.2 5.2 5.2-5.2 5.2-5.3-3.9-4.1c-6.3-6.4-6.5-6.4-12-.8zM91.2 102.8l-4.2 4.4 3.7 3.9c2.1 2.2 4.4 3.9 5.1 3.9.8 0 3.1-1.7 5.2-3.9l3.8-3.8-4.6-4.5-4.7-4.5-4.3 4.5zM151.8 102.8l-4.6 4.7 4.4 4.2 4.3 4.2 4.5-4.3 4.6-4.3-4.3-4.6-4.4-4.6-4.5 4.7zM30.7 103.1l-3.8 4.1 4.2 4.3c3.6 3.6 4.6 4.2 5.8 3.2 2.5-2 7.1-7 7.1-7.6 0-1.1-7.5-8.1-8.5-8.1-.6.1-2.7 1.9-4.8 4.1zM60.7 103.2l-3.8 4.1 4.5 4.4L66 116l4-4c2.2-2.2 4-4.4 4-4.8 0-1.3-7.2-8.2-8.4-8.1-.6 0-2.8 1.9-4.9 4.1zM121.1 102.9c-1.9 2.1-3.3 4.2-3.1 4.7.3.5 2.1 2.6 4.2 4.6l3.8 3.7 4.5-4.4 4.5-4.3-4.2-4.1c-2.4-2.2-4.7-4-5.3-4-.5 0-2.5 1.7-4.4 3.8zM17.2 118.3c-1.8 1.8-3.2 3.6-3.2 4.1 0 .8 6.1 6.6 7 6.6.3 0 2-1.5 3.8-3.3l3.2-3.2-2.3-2.5c-4.6-5.2-5.1-5.2-8.5-1.7zM47.1 118.4c-3.3 3.4-3.3 3.4-1.5 5.9 3.8 5 5.3 5.3 9.2 1.4l3.5-3.5-3.6-3.6c-2-2-3.8-3.6-4-3.6-.2 0-1.8 1.5-3.6 3.4zM77 118.5l-3.4 3.5 3.7 3.8 3.7 3.7 3.6-3.7 3.7-3.6-3.5-3.6c-1.9-2-3.7-3.6-4-3.6-.2 0-1.9 1.6-3.8 3.5zM107.4 118.3l-3.9 3.6 3.8 3.8 3.7 3.8 3.7-3.7 3.6-3.7-3.5-3.7-3.6-3.6-3.8 3.5zM137 118.5l-3.4 3.5 3.7 3.8 3.7 3.7 3.7-3.7 3.7-3.8-3.4-3.5c-1.9-1.9-3.7-3.5-4-3.5-.3 0-2.1 1.6-4 3.5zM167.2 118.5l-3.4 3.4 3.6 3.8 3.5 3.8 3.8-3.7 3.7-3.8-3.4-3.5c-1.9-1.9-3.6-3.5-3.9-3.4-.4 0-2.1 1.5-3.9 3.4zM2.6 134.1l-2.9 3.1 3.1 3 3 3.1 2.6-2.9c1.4-1.6 2.6-3.2 2.6-3.5 0-.3-1.2-1.7-2.8-3.2l-2.8-2.6-2.8 3zM32.7 134.3l-2.6 3.2 2.8 2.8 2.8 2.9 2.7-2.5c3.3-3.1 3.3-3.7-.2-7l-2.8-2.7-2.7 3.3zM123 134.2l-2.6 3.1 2.8 2.9 2.9 2.9 2.4-2.3c1.4-1.3 2.5-2.8 2.5-3.5 0-1-4.5-6.3-5.3-6.3-.1 0-1.3 1.4-2.7 3.2zM183.7 133.8c-3.3 3.5-3.3 3.9 0 6.8l2.8 2.4 2.7-3.1 2.8-3.1-2.7-2.9c-1.6-1.6-2.8-2.9-2.9-2.9 0 0-1.2 1.3-2.7 2.8zM62.2 134.7l-2.2 2.7 2.9 2.9 2.8 2.9 2.7-2.7c3.2-3.2 3.2-3.6.3-6.3-3-2.8-3.9-2.8-6.5.5zM92.3 134.7c-2.1 2.3-2.1 2.6-.6 4.2l2.9 2.9c1.1 1 1.9.7 4.3-1.8l2.9-3.1-2.3-2.4c-2.8-3.1-4.4-3.1-7.2.2zM152.8 134.3l-2.6 2.4 2.9 3.2 2.9 3.3 2.9-2.8 2.9-2.7-2.1-2.9c-2.5-3.4-3.7-3.5-6.9-.5z"/></svg>