<svg version="1.0" xmlns="http://www.w3.org/2000/svg" width="933.333" height="933.333" viewBox="0 0 700 700"><path d="M274.5 198.5c-12.1 12.2-21.9 22.9-21.7 23.6.2.7 10.3 11.3 22.5 23.5 17.6 17.7 22.5 22.1 23.8 21.4 2.7-1.5 44.9-44.2 44.9-45.5 0-1.7-43.7-45-45.7-45.2-1.1-.1-10 8.2-23.8 22.2zM381.2 198.3C369 210.5 359 221 359 221.5c0 .6 10.3 11.3 23 24l23 22.9 22-21.9c12.2-12.1 22.6-22.8 23.2-23.9.9-1.6-2-4.9-21.5-24.2-12.3-12.3-23-22.4-23.8-22.4-.8 0-11.4 10-23.7 22.3zM224.2 254.1c-15.8 15.9-19.9 20.5-19.2 21.8.5.9 9.7 10.4 20.5 21.1l19.6 19.4 20.4-20.4c11.3-11.3 20.5-20.8 20.5-21.1 0-.8-40-40.9-40.9-40.9-.4 0-9.8 9.1-20.9 20.1zM330.9 253.8c-10.9 11-19.9 20.4-19.9 21 0 1.1 39.6 41.2 40.7 41.2 1.4 0 40.3-39.6 40.3-41 0-1.5-38.8-41-40.4-41-.4 0-9.7 8.9-20.7 19.8zM437.4 254c-10.9 11.1-20.1 20.3-20.3 20.5-.5.6 37.7 39.3 40 40.6 1.4.7 5.7-3.2 21.8-19.3 11.1-11.1 20.1-20.5 20.1-20.9 0-1-39.9-40.9-40.9-40.9-.4 0-9.7 9-20.7 20zM280.6 309.4c-9.7 9.7-17.6 18.2-17.6 18.9 0 1.3 34.1 35.7 35.4 35.7 1.4 0 35.8-35 35.4-36-.3-.8-24.5-25.6-32.6-33.3l-3-2.8-17.6 17.5zM493.7 309.6c-9.7 9.6-17.7 18-17.7 18.6 0 .6 7.7 8.9 17.2 18.3 12 12.2 17.6 17.1 18.7 16.7 2-.7 35.1-33.6 35.1-34.9 0-.8-27.4-28.8-33.7-34.6-1.9-1.7-2.5-1.2-19.6 15.9zM173 310.5l-17.4 17.4 2.9 3.2c4.4 4.6 26.7 26.9 30.4 30.4l3.2 2.9 17.4-17.4c9.6-9.6 17.5-18.1 17.5-18.8 0-1.8-33.3-35.2-35.1-35.2-.8 0-9.3 7.9-18.9 17.5zM386 310.5l-17.4 17.4 2.9 3.1c10.6 11.1 31.8 31.9 32.9 32.3.8.3 8.4-6.5 19.1-17.4l17.8-17.9-17.4-17.5c-9.5-9.6-18.1-17.5-18.9-17.5-.8 0-9.4 7.9-19 17.5zM122.7 365.8c-8.1 8.1-14.7 15.1-14.7 15.7 0 .5 6.8 7.7 14.9 15.8 12.8 12.7 15.2 14.7 16.8 13.8 1-.6 8-7.3 15.6-15 11.9-11.9 13.7-14.1 12.9-15.7-1.4-2.6-28.6-29.4-29.8-29.4-.5 0-7.5 6.7-15.7 14.8zM229.7 365.6c-8.1 8.1-14.7 15.2-14.7 15.9 0 1.4 28.6 30 30 30 1.6 0 30-28.6 30-30.2 0-1.2-28.7-30.3-29.9-30.3-.3 0-7.2 6.6-15.4 14.6zM335.9 365.9C327.7 374 321 381 321 381.4c0 .9 29.6 30.6 30.6 30.6s28.3-27.1 29.6-29.4c.9-1.6-1-3.9-13.8-16.7-8.2-8.2-15.3-14.9-15.7-14.9-.5 0-7.6 6.7-15.8 14.9zM442.7 365.8c-8.1 8.1-14.7 15.2-14.7 15.7 0 .6 6.7 7.7 14.9 15.9 13.6 13.6 15.1 14.8 16.7 13.5 1-.8 8-7.7 15.6-15.3 11.9-11.9 13.6-14.1 12.6-15.5-2.4-3-28.9-29.1-29.6-29.1-.4 0-7.4 6.6-15.5 14.8zM548.9 366c-13.4 13.4-15 15.2-13.7 16.7 2.6 3.3 28.9 29.3 29.6 29.3 1.1 0 30.2-29.4 30.2-30.5 0-1.2-29.1-30.5-30.3-30.5-.4 0-7.5 6.8-15.8 15zM392.2 421.3C385.5 428 380 434 380 434.7c0 1.5 24 25.5 25.1 25.1 1.7-.6 24.9-24.1 24.9-25.2 0-1-20.2-21.4-24.1-24.3-1.3-1-3.5.8-13.7 11zM72.5 421.3c-6.1 6.2-11.5 11.8-11.9 12.6-.6.9 2.7 4.9 11.5 13.7 6.8 6.8 12.7 12.4 13.1 12.4 1.3 0 24.8-23.9 24.8-25.3 0-1.8-23.2-24.7-25-24.6-.8 0-6.5 5.1-12.5 11.2zM178.7 421.8c-6.4 6.4-11.7 12.3-11.7 12.9 0 1.2 19.2 21.1 23.3 24.3 1.7 1.2 2.9.2 14.3-11.1 6.8-6.8 12.4-12.7 12.4-13.2 0-1.5-23.6-24.7-25.1-24.7-.8 0-6.7 5.3-13.2 11.8zM285.5 421.3c-6 6.2-11.3 11.9-11.6 12.7-.5 1 3.1 5.3 11.4 13.7 6.7 6.8 12.5 12.3 13 12.3 1.5 0 24.7-23.7 24.7-25.2 0-2-22.6-24.2-24.8-24.5-1-.1-6.3 4.5-12.7 11zM500.9 419.4c-5.2 5.1-10.7 10.7-12.3 12.5l-2.9 3.1 11.4 11.6c6.3 6.3 12.2 12 13.2 12.6 1.6.8 3.7-.8 13.4-10.4 6.3-6.2 11.9-12 12.4-12.9.7-1.3-1.7-4.2-11.4-13.8-6.7-6.6-12.7-12.1-13.3-12.1-.7 0-5.4 4.2-10.5 9.4zM604.8 421.8c-6.5 6.4-11.8 12.2-11.8 12.8 0 1.1 23.9 25.4 25 25.4 1.2 0 25-24.2 25-25.4 0-1.7-23.3-24.6-25-24.6-.8 0-6.8 5.3-13.2 11.8zM21.6 477.6c-5.3 5.3-9.6 9.9-9.6 10.4 0 1 18.9 20 19.9 20S52 489 52 488.1c0-1-19.1-20.1-20.1-20.1-.4 0-5 4.3-10.3 9.6zM128.2 477.3c-5 5.1-9.2 9.9-9.2 10.8 0 1.6 18 19.9 19.6 19.9 1.6 0 19.4-18.5 19.4-20.1 0-1.6-18-19.9-19.6-19.9-.5 0-5.1 4.2-10.2 9.3zM234.7 477.6c-5.3 5.3-9.7 10-9.7 10.3 0 1.1 19.1 20.1 20.1 20.1 1.2 0 19.9-18.8 19.9-20 0-1.1-18.6-20-19.7-20-.5 0-5.2 4.3-10.6 9.6zM341.3 477.2c-5.1 5-9.3 9.6-9.3 10.2 0 1.1 7.2 8.7 15.8 17l4 3.8 10.1-10.1c5.6-5.6 10.1-10.3 10.1-10.5 0-1-19.3-19.6-20.3-19.6-.7 0-5.4 4.1-10.4 9.2zM447.9 476.8c-4.7 4.8-8.9 9.3-9.3 10-.9 1.5 17 20.2 19.4 20.2 1.7 0 20-17.9 20-19.5 0-1.7-18.4-19.5-20-19.5-.8.1-5.3 4-10.1 8.8zM554.1 477.4c-5.1 5.2-9.2 9.8-9 10.4.5 1.3 9.2 10.4 15.3 16l4.7 4.3 8.7-8.8c4.8-4.8 9.3-9.5 10-10.5 1.1-1.4 0-2.9-8.2-11.2-5.3-5.3-10.2-9.6-10.9-9.6-.7 0-5.4 4.2-10.6 9.4zM661.8 476.3c-4.6 4.5-8.9 9-9.7 9.9-1.2 1.6-.2 2.9 8.9 11.9 5.6 5.5 10.3 9.9 10.5 9.7 4.2-3.5 19.5-19.5 19.5-20.3 0-1.4-18.2-19.5-19.7-19.5-.7 0-5 3.7-9.5 8.3z"/></svg>